HIERARCHY
ROOT ui
{
	 OFFSET 0 0 0
	 CHANNELS 3 XPosition YPosition Z Position
	 EndSite
	 {
	 OFFSET 0 -1 0
	 }
}
ROOT li
{
	 OFFSET 0 0 0
	 CHANNELS 3 XPosition YPosition Z Position
	 EndSite
	 {
	 OFFSET 0 -1 0
	 }
}
ROOT ul
{
	 OFFSET 0 0 0
	 CHANNELS 3 XPosition YPosition Z Position
	 EndSite
	 {
	 OFFSET 0 -1 0
	 }
}
ROOT ll
{
	 OFFSET 0 0 0
	 CHANNELS 3 XPosition YPosition Z Position
	 EndSite
	 {
	 OFFSET 0 -1 0
	 }
}
ROOT tt
{
	 OFFSET 0 0 0
	 CHANNELS 3 XPosition YPosition Z Position
	 EndSite
	 {
	 OFFSET 0 -1 0
	 }
}
ROOT tb
{
	 OFFSET 0 0 0
	 CHANNELS 3 XPosition YPosition Z Position
	 EndSite
	 {
	 OFFSET 0 -1 0
	 }
}
ROOT td
{
	 OFFSET 0 0 0
	 CHANNELS 3 XPosition YPosition Z Position
	 EndSite
	 {
	 OFFSET 0 -1 0
	 }
}
ROOT v
{
	 OFFSET 0 0 0
	 CHANNELS 3 XPosition YPosition Z Position
	 EndSite
	 {
	 OFFSET 0 -1 0
	 }
}
ROOT bn
{
	 OFFSET 0 0 0
	 CHANNELS 3 XPosition YPosition Z Position
	 EndSite
	 {
	 OFFSET 0 -1 0
	 }
}
MOTION
Frames: 24
Frame Time: 0.002
9.026399999856949E-5	7.38453984260559E-4	0		0.4313415832519531	-2.49354443359375	0		-1.0408870849609375	0.05806441879272461	0		-0.8588963012695312	-2.62368359375	0		1.3003084716796875	-0.7185589599609375	0		2.83346435546875	0.1643290557861328	0		4.30802880859375	0.2623323059082031	0		5.63717041015625	0.030509441375732423	0		-0.08767751312255859	5.9511962890625	0		
0.06989585876464843	-0.009271219253540039	0		0.43328042602539063	-2.4870673828125	0		-1.1056151123046876	0.07017739868164062	0		-0.8929149169921875	-2.614283203125	0		1.3054713134765625	-0.7092271118164063	0		2.857363525390625	0.15810159301757812	0		4.3130087890625	0.2594005126953125	0		5.64351220703125	0.04443300628662109	0		-0.05874912643432617	5.9681318359375	0		
0.030352874755859374	0.00919916820526123	0		0.4482830505371094	-2.4798671875	0		-1.0346082763671876	0.06724929046630859	0		-0.857086669921875	-2.614440185546875	0		1.3024520263671875	-0.7096942138671875	0		2.851758544921875	0.17256387329101563	0		4.317251953125	0.26651275634765625	0		5.63537890625	0.03570488739013672	0		-0.06216706085205078	5.96880517578125	0		
0.048377281188964845	0.004388816833496094	0		0.41515765380859376	-2.4815576171875	0		-1.0415499267578125	0.06409407806396485	0		-0.900243408203125	-2.616794921875	0		1.2905826416015624	-0.7069331665039063	0		2.8135166015625	0.1557894287109375	0		4.29926220703125	0.26015985107421874	0		5.63250146484375	0.034900405883789065	0		-0.07977085876464844	5.95881982421875	0		
0.02063255500793457	0.005644594192504883	0		0.43706503295898436	-2.48746630859375	0		-1.048408935546875	0.05996083068847656	0		-0.870348876953125	-2.6227802734375	0		1.2884560546875	-0.7203640747070312	0		2.82675048828125	0.15489251708984375	0		4.3033701171875	0.2533504180908203	0		5.62080029296875	0.03734584808349609	0		-0.08206910705566406	5.958517578125	0		
0.011826285362243652	-0.0014993710517883301	0		0.407303955078125	-2.484165283203125	0		-1.125010986328125	0.06244650268554688	0		-0.9081181030273437	-2.619197998046875	0		1.290911376953125	-0.7138583374023437	0		2.829952392578125	0.14726287841796876	0		4.29387939453125	0.25890234375	0		5.62292529296875	0.02652871322631836	0		-0.06904339599609376	5.96789794921875	0		
0.015474980354309081	0.0051086430549621585	0		0.4185232238769531	-2.488765380859375	0		-1.0494681396484375	0.0634887237548828	0		-0.9087680053710937	-2.61743212890625	0		1.2914189453125	-0.7112711791992188	0		2.848744873046875	0.15932672119140626	0		4.2955244140625	0.26425335693359375	0		5.62457666015625	0.03278543090820313	0		-0.07113087463378906	5.96765087890625	0		
0.013113162994384765	0.00488562822341919	0		0.4082520141601563	-2.477834228515625	0		-1.1217158203125	0.06894075775146484	0		-0.9082111206054687	-2.613664306640625	0		1.289010009765625	-0.7115780029296875	0		2.82821435546875	0.1513326416015625	0		4.2931796875	0.2637491149902344	0		5.617447265625	0.04230593872070312	0		-0.08734960174560547	5.9567578125	0		
0.010904231071472169	0.004693037986755371	0		0.4287256774902344	-2.485578125	0		-1.054031494140625	0.06320756149291992	0		-0.9136697998046875	-2.61773095703125	0		1.2836895751953126	-0.7147780151367188	0		2.8483076171875	0.1634600830078125	0		4.28684912109375	0.25739105224609377	0		5.61108056640625	0.03486796951293945	0		-0.0891982421875	5.9565712890625	0		
0.005758881092071533	6.001880168914795E-4	0		0.39754168701171877	-2.485095458984375	0		-1.066056396484375	0.06433372497558594	0		-0.8829928588867187	-2.6236025390625	0		1.2726673583984376	-0.7118048095703124	0		2.81501708984375	0.1528577880859375	0		4.28480908203125	0.25699136352539065	0		5.6090283203125	0.03439501190185547	0		-0.09189949798583984	5.9574365234375	0		
7.9094797372818E-4	-0.002464879035949707	0		0.42244110107421873	-2.48887353515625	0		-1.0579783935546876	0.06302143096923828	0		-0.9199451904296875	-2.61988525390625	0		1.27656884765625	-0.7191403198242188	0		2.808288330078125	0.15969541931152345	0		4.287736328125	0.24852818298339843	0		5.61129150390625	0.0408845443725586	0		-0.09252359771728516	5.956283203125	0		
-0.01978817558288574	0.004863763809204101	0		0.4075632629394531	-2.48970068359375	0		-1.1296103515625	0.06857945251464843	0		-0.9187174072265625	-2.616023681640625	0		1.2809508056640626	-0.7124479370117187	0		2.83342626953125	0.15383580017089843	0		4.2891396484375	0.25415478515625	0		5.61431396484375	0.030409582138061525	0		-0.07779769897460938	5.96480517578125	0		
0.017445056915283204	-0.0031242799758911134	0		0.4338389892578125	-2.4914521484375	0		-1.053153076171875	0.06972841644287109	0		-0.9163474731445312	-2.613166748046875	0		1.282420166015625	-0.7086558837890625	0		2.84515966796875	0.16733123779296874	0		4.2947392578125	0.26173287963867187	0		5.6179052734375	0.03798113250732422	0		-0.08110664367675781	5.96676806640625	0		
0.002168790102005005	0.004133283138275146	0		0.39248248291015625	-2.483605224609375	0		-1.062753662109375	0.06288792037963867	0		-0.8880756225585937	-2.62189453125	0		1.268932861328125	-0.7094869995117188	0		2.792364990234375	0.15235536193847657	0		4.28916748046875	0.2556116180419922	0		5.6023515625	0.03304550552368164	0		-0.0965916748046875	5.95603369140625	0		
-0.0022153749465942383	1.5723399817943573E-4	0		0.4180609130859375	-2.48629150390625	0		-1.0681357421875	0.058967586517333984	0		-0.9243683471679688	-2.618100830078125	0		1.2734779052734375	-0.71571044921875	0		2.8070732421875	0.1518512420654297	0		4.27688623046875	0.25568992614746094	0		5.60582666015625	0.02271432113647461	0		-0.09770221710205078	5.95598974609375	0		
0.006428756237030029	-0.009104416847229005	0		0.39764779663085936	-2.494888916015625	0		-1.065185791015625	0.06287004089355469	0		-0.8927058715820313	-2.623875244140625	0		1.2692232666015626	-0.7197041015625	0		2.81176904296875	0.14460865783691407	0		4.28056201171875	0.24743241882324218	0		5.60049853515625	0.014631606101989747	0		-0.08443750762939453	5.96663232421875	0		
0.020636232376098632	-4.7474199533462525E-4	0		0.4007098388671875	-2.490010498046875	0		-1.1401390380859375	0.0656002197265625	0		-0.9266366577148437	-2.61810546875	0		1.274370849609375	-0.7128921508789062	0		2.816075927734375	0.1574080352783203	0		4.27889599609375	0.26133877563476565	0		5.60784814453125	0.029298599243164063	0		-0.08530304718017578	5.96661572265625	0		
0.0019471709728240967	0.006936273097991943	0		0.39206503295898437	-2.4788408203125	0		-1.0629696044921875	0.0657947006225586	0		-0.8885298461914063	-2.6180048828125	0		1.2735003662109374	-0.7129224853515626	0		2.813035400390625	0.14939788818359376	0		4.27804345703125	0.2612525634765625	0		5.60699169921875	0.029187669754028322	0		-0.10030209350585938	5.9559404296875	0		
0.006918416023254394	-0.006196788787841797	0		0.38718743896484376	-2.483748779296875	0		-1.06776123046875	0.06290877151489258	0		-0.9283067016601563	-2.6180771484375	0		1.2696962890625	-0.7158677368164063	0		2.843585693359375	0.16063107299804688	0		4.27318505859375	0.25528509521484377	0		5.6015029296875	0.03921868515014648	0		-0.10093400573730468	5.9559453125	0		
-0.003444906949996948	0.00404596996307373	0		0.4135024108886719	-2.48637158203125	0		-1.072452392578125	0.05902880859375	0		-0.896065185546875	-2.62382275390625	0		1.2601602783203125	-0.7126624145507813	0		2.797930419921875	0.15865895080566406	0		4.26775341796875	0.26235791015625	0		5.59674169921875	0.03225516891479492	0		-0.10243456268310547	5.95698193359375	0		
-0.010092073440551758	-0.0027929580211639403	0		0.38604571533203125	-2.4837265625	0		-1.1468934326171876	0.061787567138671874	0		-0.9314976806640625	-2.6199775390625	0		1.26550244140625	-0.719794677734375	0		2.8015625	0.1635543670654297	0		4.2762451171875	0.2611230773925781	0		5.601021484375	0.022102617263793947	0		-0.10188241577148438	5.95597900390625	0		
0.011334201812744141	-0.011280449867248535	0		0.4234239807128906	-2.493591064453125	0		-1.1391121826171875	0.06863251495361328	0		-0.9180205078125	-2.625271484375	0		1.2712779541015624	-0.7129227294921875	0		2.835822998046875	0.14774192810058595	0		4.28451318359375	0.24590631103515626	0		5.6099892578125	0.03686683654785156	0		-0.08600841522216797	5.96462744140625	0		
0.0025421240329742433	0.009953493118286133	0		0.39150537109375	-2.476820556640625	0		-1.061348388671875	0.0698446044921875	0		-0.925040283203125	-2.613075927734375	0		1.27408056640625	-0.7089727783203125	0		2.8050146484375	0.16847244262695313	0		4.27558251953125	0.2611145324707031	0		5.6045185546875	0.028979326248168947	0		-0.10246173858642578	5.9560341796875	0		
-0.0047962827682495116	0.004152780055999756	0		0.41207687377929686	-2.48627734375	0		-1.0697095947265625	0.06307281112670898	0		-0.9303688354492188	-2.6179189453125	0		1.2677149658203124	-0.7158029174804688	0		2.801418701171875	0.15156733703613282	0		4.27124462890625	0.2552225341796875	0		5.604318359375	0.028985584259033203	0		-0.10263235473632812	5.956068359375	0		
